<?xml version="1.0" encoding="UTF-8"?>
<!DOCTYPE svg PUBLIC "-//W3C//DTD SVG 1.1//EN" "http://www.w3.org/Graphics/SVG/1.1/DTD/svg11.dtd">
<!-- Creator: CorelDRAW X7 -->
<svg xmlns="http://www.w3.org/2000/svg" xml:space="preserve" width="8.0432mm" height="8.2972mm" version="1.1" style="shape-rendering:geometricPrecision; text-rendering:geometricPrecision; image-rendering:optimizeQuality; fill-rule:evenodd; clip-rule:evenodd"
viewBox="0 0 804 830"
 xmlns:xlink="http://www.w3.org/1999/xlink">
 <defs>
  <style type="text/css">
   <![CDATA[
    .fil0 {fill:#3A8970}
   ]]>
  </style>
 </defs>
 <g id="Camada_x0020_1">
  <metadata id="CorelCorpID_0Corel-Layer"/>
  <path class="fil0" d="M0 832l804 0 0 -17c0,-14 -11,-25 -25,-25l-30 0 0 -750c0,-23 -19,-42 -42,-42l-610 0c-23,0 -42,19 -42,42l0 750 -30 0c-14,0 -25,11 -25,25l0 17zm339 -68l127 0 0 -127c0,-14 -12,-25 -26,-25l-76 0c-14,0 -25,11 -25,25l0 127zm-104 -658l97 0c8,0 15,6 15,15l0 72c0,8 -7,14 -15,14l-97 0c-8,0 -15,-6 -15,-14l0 -72c0,-9 7,-15 15,-15zm237 0l97 0c9,0 15,6 15,15l0 72c0,8 -6,14 -15,14l-97 0c-8,0 -15,-6 -15,-14l0 -72c0,-9 7,-15 15,-15zm-237 149l97 0c8,0 15,7 15,15l0 72c0,8 -7,15 -15,15l-97 0c-8,0 -15,-7 -15,-15l0 -72c0,-8 7,-15 15,-15zm237 0l97 0c9,0 15,7 15,15l0 72c0,8 -6,15 -15,15l-97 0c-8,0 -15,-7 -15,-15l0 -72c0,-8 7,-15 15,-15zm-237 150l97 0c8,0 15,6 15,14l0 72c0,9 -7,15 -15,15l-97 0c-8,0 -15,-6 -15,-15l0 -72c0,-8 7,-14 15,-14zm237 0l97 0c9,0 15,6 15,14l0 72c0,9 -6,15 -15,15l-97 0c-8,0 -15,-6 -15,-15l0 -72c0,-8 7,-14 15,-14z"/>
 </g>
</svg>
