<svg id="Capa_1" enable-background="new 0 0 512 512" height="512" viewBox="0 0 512 512" width="512" xmlns="http://www.w3.org/2000/svg"><g><path d="m406.473 512h-316.567c-5.69 0-10.302-4.612-10.302-10.302v-439.259h326.869c5.69 0 10.302 4.612 10.302 10.302v428.957c0 5.69-4.612 10.302-10.302 10.302z" fill="#d3effb"/><path d="m375.254 480.78h-316.567c-5.69 0-10.302-4.612-10.302-10.302v-439.258h326.869c5.69 0 10.302 4.612 10.302 10.302v428.957c0 5.689-4.612 10.301-10.302 10.301z" fill="#e4f6ff"/><path d="m341.953 447.48h-316.567c-5.69 0-10.302-4.612-10.302-10.302v-426.876c0-5.69 4.613-10.302 10.302-10.302h316.567c5.69 0 10.302 4.612 10.302 10.302v426.876c0 5.689-4.612 10.302-10.302 10.302z" fill="#f4fbff"/><path d="m40.658 56.3v-12.697c0-5.69 4.612-10.302 10.302-10.302h265.419c5.69 0 10.302 4.612 10.302 10.302v12.697c0 5.69-4.612 10.302-10.302 10.302h-265.419c-5.69 0-10.302-4.613-10.302-10.302z" fill="#9d66d5"/><g><path d="m452.754 457.473-29.582 29.582c-4.023 4.023-10.546 4.023-14.569 0l-19.206-19.206 44.151-44.151 19.206 19.206c4.023 4.023 4.023 10.546 0 14.569z" fill="#2b4d66"/><path d="m491.755 512h-34.572c-3.825 0-7.494-1.52-10.198-4.224l-22.266-22.266 26.491-26.491 44.188 44.188c3.244 3.245.946 8.793-3.643 8.793z" fill="#4a80aa"/><circle cx="326.114" cy="360.415" fill="#f6e781" r="124.878"/><path d="m401.633 260.961c15.95 20.973 25.424 47.138 25.424 75.519 0 68.968-55.91 124.878-124.878 124.878-28.381 0-54.546-9.474-75.519-25.424 22.809 29.992 58.867 49.359 99.454 49.359 68.968 0 124.878-55.91 124.878-124.878 0-40.587-19.367-76.645-49.359-99.454z" fill="#f4dd45"/><circle cx="326.114" cy="360.415" fill="#e4f6ff" r="91.577"/><path d="m381.416 287.422c11.66 15.366 18.584 34.524 18.584 55.302 0 50.577-41.001 91.577-91.577 91.577-20.778 0-39.935-6.924-55.302-18.584 16.723 22.039 43.194 36.275 72.993 36.275 50.577 0 91.577-41.001 91.577-91.577 0-29.799-14.236-56.27-36.275-72.993z" fill="#d3effb"/></g><g><path d="m318.954 107.629h-201.886c-4.268 0-7.726-3.459-7.726-7.726 0-4.268 3.459-7.726 7.726-7.726h201.886c4.268 0 7.726 3.459 7.726 7.726s-3.458 7.726-7.726 7.726z" fill="#dd636e"/></g><g><path d="m318.954 140.93h-201.886c-4.268 0-7.726-3.459-7.726-7.726s3.459-7.726 7.726-7.726h201.886c4.268 0 7.726 3.459 7.726 7.726s-3.458 7.726-7.726 7.726z" fill="#dd636e"/></g><g><path d="m318.954 207.531h-201.886c-4.268 0-7.726-3.459-7.726-7.726s3.459-7.726 7.726-7.726h201.886c4.268 0 7.726 3.459 7.726 7.726s-3.458 7.726-7.726 7.726z" fill="#dd636e"/></g><g><path d="m318.954 174.23h-201.886c-4.268 0-7.726-3.459-7.726-7.726s3.459-7.726 7.726-7.726h201.886c4.268 0 7.726 3.459 7.726 7.726s-3.458 7.726-7.726 7.726z" fill="#dd636e"/></g><g><path d="m203.442 274.133h-86.374c-4.268 0-7.726-3.459-7.726-7.726s3.459-7.726 7.726-7.726h86.374c4.268 0 7.726 3.459 7.726 7.726s-3.458 7.726-7.726 7.726z" fill="#dd636e"/></g><g><path d="m225.296 240.832h-108.228c-4.268 0-7.726-3.459-7.726-7.726s3.459-7.726 7.726-7.726h108.228c4.268 0 7.726 3.459 7.726 7.726s-3.458 7.726-7.726 7.726z" fill="#dd636e"/></g><g><path d="m171.181 340.734h-54.114c-4.268 0-7.726-3.459-7.726-7.726s3.459-7.726 7.726-7.726h54.114c4.268 0 7.726 3.459 7.726 7.726s-3.458 7.726-7.726 7.726z" fill="#dd636e"/></g><g><path d="m180.548 307.434h-63.48c-4.268 0-7.726-3.459-7.726-7.726s3.459-7.726 7.726-7.726h63.48c4.268 0 7.726 3.459 7.726 7.726s-3.459 7.726-7.726 7.726z" fill="#dd636e"/></g><g><path d="m173.263 407.336h-56.195c-4.268 0-7.726-3.459-7.726-7.726s3.459-7.726 7.726-7.726h56.195c4.268 0 7.726 3.459 7.726 7.726s-3.459 7.726-7.726 7.726z" fill="#dd636e"/></g><g><path d="m168.06 374.035h-50.992c-4.268 0-7.726-3.459-7.726-7.726 0-4.268 3.459-7.726 7.726-7.726h50.992c4.268 0 7.726 3.459 7.726 7.726s-3.459 7.726-7.726 7.726z" fill="#dd636e"/></g><g fill="#95d6a4"><path d="m81.685 92.176h-33.3c-4.268 0-7.726 3.459-7.726 7.726v33.301c0 4.268 3.459 7.726 7.726 7.726h33.301c4.268 0 7.726-3.459 7.726-7.726v-33.301c0-4.267-3.459-7.726-7.727-7.726z"/><path d="m81.685 158.778h-33.3c-4.268 0-7.726 3.459-7.726 7.726v33.301c0 4.268 3.459 7.726 7.726 7.726h33.301c4.268 0 7.726-3.459 7.726-7.726v-33.301c0-4.268-3.459-7.726-7.727-7.726z"/><path d="m81.685 225.379h-33.3c-4.268 0-7.726 3.459-7.726 7.726v33.301c0 4.268 3.459 7.726 7.726 7.726h33.301c4.268 0 7.726-3.459 7.726-7.726v-33.301c0-4.267-3.459-7.726-7.727-7.726z"/><path d="m81.685 291.981h-33.3c-4.268 0-7.726 3.459-7.726 7.726v33.301c0 4.268 3.459 7.726 7.726 7.726h33.301c4.268 0 7.726-3.459 7.726-7.726v-33.301c0-4.267-3.459-7.726-7.727-7.726z"/><path d="m81.685 358.582h-33.3c-4.268 0-7.726 3.459-7.726 7.726v33.301c0 4.268 3.459 7.726 7.726 7.726h33.301c4.268 0 7.726-3.459 7.726-7.726v-33.301c0-4.267-3.459-7.726-7.727-7.726z"/></g></g></svg>